<svg xmlns="http://www.w3.org/2000/svg" viewBox="0 0 203.65 101.11"><defs><style>.cls-1{fill:#f40116;}</style></defs><title>logo</title><g id="Capa_2" data-name="Capa 2"><g id="layer_1" data-name="layer 1"><path class="cls-1" d="M203.65,0c-10.58,2.7-18.86,7.21-25.73,14.26-9,9.29-18,18.67-27.11,27.91-12.14,12.32-24.38,24.54-36,36.28a8.79,8.79,0,0,0,3-.32c14-5.25,28.08-10.33,41.88-16.08,3.58-1.49,6.77-4.75,9.22-7.9,4.07-5.24,7.43-11,11-16.64C187.61,25.35,195.31,13.15,203.65,0Z"/><path class="cls-1" d="M203.65,0c-8.34,13.15-16,25.35-23.79,37.51-3.58,5.61-6.94,11.4-11,16.64-2.45,3.15-5.64,6.41-9.22,7.9-13.8,5.75-27.88,10.83-41.88,16.08a8.79,8.79,0,0,1-3,.32c11.67-11.74,23.91-24,36.05-36.28,9.1-9.24,18.06-18.62,27.11-27.91C184.79,7.21,193.07,2.7,203.65,0Z"/><path d="M0,100.69V76.36H10.79a14.33,14.33,0,0,1,5,.65,5.38,5.38,0,0,1,2.7,2.32,6.86,6.86,0,0,1,1,3.67,6.1,6.1,0,0,1-1.68,4.36,8.44,8.44,0,0,1-5.18,2.26,8.29,8.29,0,0,1,1.94,1.21,17.18,17.18,0,0,1,2.68,3.24l4.23,6.62H17.4l-3.22-5.06c-.94-1.46-1.72-2.58-2.33-3.35a7.27,7.27,0,0,0-1.63-1.63A4.77,4.77,0,0,0,8.75,90,10.55,10.55,0,0,0,7,89.89H3.22v10.8ZM3.22,87.1h6.92a10.5,10.5,0,0,0,3.46-.46,3.64,3.64,0,0,0,1.89-1.46A4,4,0,0,0,16.14,83a3.62,3.62,0,0,0-1.26-2.84,5.85,5.85,0,0,0-4-1.11H3.22Z"/><path d="M36.19,95l3.09.38a7.57,7.57,0,0,1-2.71,4.2,8.15,8.15,0,0,1-5,1.49,8.07,8.07,0,0,1-6.14-2.38A9.32,9.32,0,0,1,23.13,92a9.74,9.74,0,0,1,2.29-6.91,7.74,7.74,0,0,1,5.94-2.46,7.57,7.57,0,0,1,5.78,2.41,9.59,9.59,0,0,1,2.24,6.78c0,.17,0,.44,0,.79H26.21a6.75,6.75,0,0,0,1.65,4.45,4.88,4.88,0,0,0,3.68,1.55,4.56,4.56,0,0,0,2.81-.87A5.7,5.7,0,0,0,36.19,95Zm-9.81-4.84h9.84a5.93,5.93,0,0,0-1.12-3.33,4.61,4.61,0,0,0-3.71-1.73,4.75,4.75,0,0,0-3.46,1.38A5.48,5.48,0,0,0,26.38,90.18Z"/><path d="M54.47,100.69V98.47a5.48,5.48,0,0,1-4.93,2.62,7,7,0,0,1-3.88-1.16,7.63,7.63,0,0,1-2.74-3.25,11.28,11.28,0,0,1-1-4.79,12.64,12.64,0,0,1,.88-4.78,6.94,6.94,0,0,1,2.64-3.3,7.1,7.1,0,0,1,3.94-1.15,5.9,5.9,0,0,1,4.86,2.43V76.36h3v24.33ZM45,91.89A7.69,7.69,0,0,0,46.45,97a4.31,4.31,0,0,0,3.37,1.68A4.22,4.22,0,0,0,53.15,97a7.38,7.38,0,0,0,1.37-4.89q0-3.61-1.4-5.31a4.26,4.26,0,0,0-3.43-1.69,4.13,4.13,0,0,0-3.33,1.63Q45,88.39,45,91.89Z"/><path d="M93.64,100.69H88.3l-2.12-5.51H76.44l-2,5.51H69.22L78.7,76.36h5.21Zm-9-9.63-3.36-9-3.29,9Z"/><path d="M101.06,100.69,94,83.06h4.89l3.32,9,1,3,.48-1.51c.15-.5.32-1,.5-1.5l3.35-9h4.8l-7,17.63Z"/><path d="M115,100.69V83.06h4.66v17.63Z"/><path d="M128,88.43l-4.23-.79q1.24-5,7.59-5a11.07,11.07,0,0,1,4.81.79,4.43,4.43,0,0,1,2.11,1.94,9.79,9.79,0,0,1,.55,3.9l-.06,5.4a12.93,12.93,0,0,0,1.06,6H135.2a7.23,7.23,0,0,1-.32-1l-.28-.92a7.84,7.84,0,0,1-2.53,1.75,7.54,7.54,0,0,1-2.93.58,6.1,6.1,0,0,1-4.24-1.45,4.82,4.82,0,0,1-1.62-3.78,4.45,4.45,0,0,1,1.53-3.67,11.33,11.33,0,0,1,4.9-1.88,24.72,24.72,0,0,0,4.53-1.15v-.47a2.6,2.6,0,0,0-.6-1.88,3.78,3.78,0,0,0-2.59-.61A2.89,2.89,0,0,0,128,88.43Zm6.25,3.79a22.36,22.36,0,0,1-2.77.7,8.33,8.33,0,0,0-2.76,1A1.76,1.76,0,0,0,128,95.4a2.46,2.46,0,0,0,2.59,2.42,3.77,3.77,0,0,0,2.25-.72A3,3,0,0,0,134,95.6a9.55,9.55,0,0,0,.22-2.45Z"/><path d="M151.41,83.06v3.72h-3.19V93.9a10.66,10.66,0,0,0,.21,2.82c.13.35.5.52,1.08.52a5.76,5.76,0,0,0,1.88-.45l.41,3.62a9.2,9.2,0,0,1-3.69.7,5.07,5.07,0,0,1-2.86-.72,3.21,3.21,0,0,1-1.38-1.84,17.45,17.45,0,0,1-.32-4.07v-7.7h-2.14V83.06h2.14v-3.5l4.67-2.72v6.22Z"/><path d="M154.58,80.67V76.36h4.66v4.31Zm0,20V83.06h4.66v17.63Z"/><path d="M162.89,91.63a8.88,8.88,0,0,1,2.49-6.35A8.63,8.63,0,0,1,172,82.65a8.51,8.51,0,0,1,6.64,2.71,9.79,9.79,0,0,1,0,13,8.5,8.5,0,0,1-6.62,2.75,9.3,9.3,0,0,1-6.46-2.38C163.77,97.14,162.89,94.78,162.89,91.63Zm4.79.25a6,6,0,0,0,1.21,4A3.9,3.9,0,0,0,172,97.31a4,4,0,0,0,3.07-1.4,7.2,7.2,0,0,0,.06-8A3.82,3.82,0,0,0,172,86.45a3.88,3.88,0,0,0-3.12,1.45A6,6,0,0,0,167.68,91.88Z"/><path d="M200.78,100.69h-4.67v-9a19.18,19.18,0,0,0-.19-3.31,2.57,2.57,0,0,0-.89-1.55,2.68,2.68,0,0,0-1.8-.6A3.63,3.63,0,0,0,191,87a3.32,3.32,0,0,0-1.27,1.92,17.84,17.84,0,0,0-.29,3.81v8h-4.66V83.06h4.33v2.58a7.71,7.71,0,0,1,2.61-2.24,6.9,6.9,0,0,1,3.21-.75,6.36,6.36,0,0,1,3.45.88,4.56,4.56,0,0,1,1.93,2.24,11.56,11.56,0,0,1,.52,4Z"/></g></g></svg>